<svg width="41" height="41" viewBox="0 0 41 41" fill="none" xmlns="http://www.w3.org/2000/svg">
<g id="Sosmed logo-09 1" clip-path="url(#clip0_71_47)">
<path id="Vector" d="M0.00537109 31.0859V4.32156C0.150121 4.24372 0.105871 4.08703 0.134501 3.97078C0.301919 3.26023 0.618059 2.59323 1.06208 2.01378C1.50609 1.43433 2.0679 0.955579 2.71045 0.609104C3.25354 0.356239 3.81911 0.154767 4.39976 0.00732422H26.2119C26.239 0.0308142 26.2634 0.0706142 26.2935 0.0754742C27.2771 0.200007 28.2014 0.614254 28.9489 1.26554C29.6965 1.91682 30.2334 2.77571 30.4915 3.73297C30.7008 4.60143 30.7638 5.4987 30.6779 6.38787C30.6735 6.71751 30.7261 6.83522 31.0983 6.82887C32.642 6.80264 34.1865 6.80929 35.7306 6.81971C36.4143 6.81087 37.0929 6.93919 37.7262 7.1971C38.3595 7.45501 38.9346 7.83728 39.4177 8.32129C39.9007 8.80531 40.2818 9.38126 40.5384 10.0151C40.795 10.6489 40.9219 11.3277 40.9117 12.0115C40.9161 20.3974 40.9171 28.7834 40.9147 37.1693C40.9192 37.6088 40.8486 38.0459 40.7059 38.4616C40.5198 38.9976 40.2115 39.4829 39.8055 39.8792C39.3995 40.2755 38.9069 40.5719 38.3666 40.745C37.8263 40.9182 37.2531 40.9632 36.6924 40.8766C36.1317 40.79 35.5988 40.5741 35.1359 40.2461C33.0179 38.8477 30.9072 37.4384 28.8036 36.0183C28.5882 35.8676 28.3304 35.7893 28.0676 35.7948C22.2503 35.8013 16.4331 35.8052 10.6159 35.8065C10.3126 35.807 10.2179 35.7437 10.2236 35.4233C10.245 34.2257 10.2321 33.0275 10.2321 31.8295V30.4757C10.0647 30.5813 9.95483 30.6476 9.84814 30.7186C8.4545 31.6461 7.07636 32.5979 5.66448 33.4967C5.1826 33.8155 4.63183 34.0151 4.0576 34.0792C3.48337 34.1433 2.90214 34.0699 2.36185 33.8651C1.82156 33.6604 1.33769 33.3301 0.950165 32.9015C0.562636 32.473 0.28255 31.9584 0.133011 31.4003C0.102481 31.2957 0.139701 31.1519 0.00537109 31.0859ZM3.41925 17.6209C3.41925 21.7741 3.42049 25.9272 3.42296 30.0804C3.4232 30.2801 3.3222 30.5374 3.56378 30.6599C3.78235 30.7707 3.93257 30.5617 4.09036 30.4568C6.43675 28.8972 8.78053 27.3336 11.1217 25.7661C11.3168 25.632 11.5493 25.5628 11.786 25.5685C16.818 25.5744 21.85 25.5781 26.882 25.5795C27.182 25.58 27.2771 25.521 27.2766 25.1977C27.2658 18.5686 27.2627 11.9395 27.2675 5.31046C27.2803 5.08452 27.2584 4.85795 27.2026 4.63864C27.0898 4.25893 26.8486 3.93018 26.5202 3.7086C26.1918 3.48702 25.7967 3.38637 25.4024 3.42385C18.733 3.42263 12.0635 3.43979 5.39427 3.40785C5.12751 3.38784 4.85957 3.4257 4.6088 3.51884C4.35802 3.61198 4.13033 3.7582 3.94131 3.9475C3.75228 4.13679 3.60639 4.36469 3.51361 4.6156C3.42083 4.86651 3.38336 5.1345 3.40375 5.40123C3.44478 9.47411 3.41925 13.5477 3.41925 17.6209ZM37.497 24.4727C37.497 20.3458 37.4966 16.2189 37.4958 12.092C37.5202 11.8418 37.4888 11.5893 37.4039 11.3526C37.319 11.116 37.1828 10.9011 37.0049 10.7235C36.827 10.5459 36.612 10.4098 36.3752 10.3253C36.1385 10.2407 35.886 10.2096 35.6358 10.2343C34.1181 10.2328 32.6002 10.246 31.0827 10.2246C30.7433 10.2199 30.6779 10.3127 30.6785 10.6376C30.6893 16.615 30.6825 22.5924 30.696 28.5697C30.6969 28.933 30.5974 28.9977 30.257 28.997C24.8784 28.9856 19.4998 28.9929 14.1212 28.9804C13.7552 28.9795 13.6189 29.0363 13.6371 29.442C13.6746 30.279 13.6667 31.1195 13.6395 31.9573C13.6284 32.3021 13.7097 32.394 14.0677 32.393C19.0869 32.3792 24.106 32.385 29.1252 32.3796C29.3629 32.3739 29.5964 32.4438 29.7918 32.5792C31.2575 33.5673 32.7306 34.5444 34.2011 35.5253C35.1078 36.1301 36.0144 36.7349 36.9209 37.3398C37.0516 37.4268 37.1792 37.5535 37.3539 37.4747C37.5417 37.3901 37.4891 37.2073 37.4964 37.0531C37.5002 36.9734 37.4971 36.8934 37.4971 36.8135C37.4971 32.6999 37.4971 28.5863 37.497 24.4727Z" fill="#004387"/>
<path id="Vector_2" d="M4.39978 0.00730604C3.81914 0.154749 3.25357 0.356221 2.71047 0.609086C2.06791 0.955556 1.5061 1.4343 1.06207 2.01376C0.618045 2.59321 0.301897 3.26021 0.134473 3.97077C0.105843 4.08702 0.150093 4.24371 0.00534332 4.32155C0.00539332 2.96336 0.0102533 1.60514 3.33209e-05 0.247026C-0.00143668 0.047106 0.0452033 0.000526043 0.245133 0.00198604C1.62995 0.012086 3.01488 0.00730604 4.39978 0.00730604Z" fill="#FCFCFC"/>
</g>
<defs>
<clipPath id="clip0_71_47">
<rect width="41" height="41" fill="white"/>
</clipPath>
</defs>
</svg>
