<svg width="41" height="41" viewBox="0 0 41 41" fill="none" xmlns="http://www.w3.org/2000/svg">
<g id="Sosmed logo-08 1" clip-path="url(#clip0_71_44)">
<path id="Vector" d="M19.3422 0.00732422H21.4993C21.5252 0.0317742 21.5491 0.0750442 21.5772 0.0779642C23.1279 0.257696 24.6083 0.825264 25.8817 1.72825C27.9154 3.11003 29.9538 4.48492 31.9969 5.85292C32.1046 5.956 32.239 6.02688 32.3848 6.05755C32.3848 5.48275 32.3832 4.92406 32.3853 4.36539C32.3716 3.74779 32.5752 3.145 32.9608 2.66232C33.2895 2.25642 33.7346 1.96085 34.2363 1.81531C34.7379 1.66977 35.2721 1.68124 35.7671 1.84816C36.2578 2.00766 36.6869 2.31578 36.9948 2.72987C37.3027 3.14395 37.4743 3.64352 37.4858 4.15942C37.5095 5.84976 37.502 7.54067 37.4911 9.23123C37.4851 9.35411 37.5083 9.47666 37.5588 9.58884C37.6093 9.70102 37.6857 9.79965 37.7816 9.87665C38.7643 10.7311 39.5516 11.787 40.0899 12.9727C40.6283 14.1584 40.9052 15.4461 40.9018 16.7483C40.9356 21.727 40.9362 26.7058 40.9037 31.6848C40.8759 34.1214 39.8952 36.4503 38.1717 38.1729C36.4481 39.8955 34.1187 40.8749 31.6821 40.9013C24.2007 40.9353 16.7193 40.9356 9.23773 40.9023C7.13171 40.8748 5.09669 40.1369 3.46241 38.8083C1.82814 37.4797 0.690357 35.6381 0.233432 33.5821C0.218846 33.2707 0.142332 32.9653 0.00836182 32.6837V15.6664C0.165222 15.5947 0.116662 15.435 0.137062 15.3197C0.336358 14.061 0.795289 12.8576 1.48469 11.7859C2.1741 10.7142 3.0789 9.79755 4.1416 9.09431C7.84226 6.57331 11.5637 4.08271 15.2758 1.57862C16.2604 0.920281 17.3597 0.452422 18.5168 0.199304C18.8005 0.180186 19.0792 0.115358 19.3422 0.00732422ZM20.4466 35.7995C24.0673 35.7995 27.688 35.7994 31.3087 35.7992C31.9057 35.8312 32.5027 35.7375 33.0611 35.5241C33.6195 35.3106 34.1268 34.9823 34.5502 34.5602C34.9736 34.1382 35.3036 33.6319 35.5188 33.0742C35.734 32.5165 35.8296 31.9197 35.7995 31.3227C35.8012 26.5571 35.8019 21.7916 35.8017 17.026C35.8266 16.2709 35.6529 15.5224 35.2979 14.8555C34.9429 14.1886 34.419 13.6265 33.7787 13.2254C30.1854 10.8051 26.5938 8.38209 23.0041 5.95637C22.2688 5.40467 21.3738 5.10737 20.4545 5.10942C19.5353 5.11147 18.6416 5.41276 17.9088 5.96773C14.3284 8.38331 10.7472 10.7978 7.16538 13.2113C6.51808 13.6131 5.9881 14.1784 5.62884 14.8503C5.26959 15.5222 5.09373 16.2768 5.119 17.0383C5.126 21.7906 5.12691 26.5428 5.12174 31.2951C5.0878 31.8953 5.18101 32.496 5.39526 33.0578C5.60951 33.6195 5.93998 34.1297 6.36504 34.5549C6.79009 34.9801 7.30015 35.3107 7.86182 35.5252C8.4235 35.7396 9.02413 35.833 9.6244 35.7993C13.2318 35.8004 16.8392 35.8005 20.4466 35.7995Z" fill="#004387"/>
<path id="Vector_2" d="M15.9702 21.3189C16.5025 21.3189 17.0356 21.301 17.5667 21.3259C17.8587 21.3397 17.9145 21.2358 17.9102 20.9673C17.8947 19.9828 17.9013 18.998 17.9047 18.0132C17.8902 17.6684 17.9456 17.3243 18.0676 17.0014C18.1896 16.6786 18.3756 16.3838 18.6145 16.1347C18.8534 15.8857 19.1403 15.6875 19.4578 15.5522C19.7752 15.4169 20.1168 15.3472 20.4619 15.3474C20.8071 15.3476 21.1486 15.4176 21.4659 15.5532C21.7833 15.6888 22.0699 15.8872 22.3086 16.1365C22.5473 16.3858 22.733 16.6807 22.8547 17.0037C22.9764 17.3267 23.0314 17.6709 23.0166 18.0157C23.0205 19.0004 23.0272 19.9853 23.011 20.9697C23.0065 21.242 23.0697 21.3307 23.357 21.3261C24.4079 21.3093 25.4597 21.3034 26.5104 21.3281C27.1355 21.3393 27.734 21.5831 28.1891 22.0119C28.6441 22.4406 28.9231 23.0235 28.9715 23.6469C29.0227 24.2416 28.864 24.8355 28.5231 25.3254C28.1821 25.8154 27.6804 26.1705 27.105 26.3292C26.8085 26.4058 26.5029 26.4408 26.1968 26.4332C25.2387 26.4308 24.2805 26.4404 23.3226 26.4267C23.0839 26.4232 23.0066 26.475 23.0107 26.7291C23.0269 27.7269 23.0203 28.7251 23.0166 29.7231C23.0302 30.0673 22.974 30.4107 22.8515 30.7327C22.7291 31.0547 22.5428 31.3487 22.304 31.5969C22.0651 31.8452 21.7786 32.0426 21.4616 32.1774C21.1446 32.3123 20.8036 32.3816 20.4591 32.3814C20.1146 32.3812 19.7737 32.3114 19.4568 32.1762C19.1399 32.0411 18.8536 31.8433 18.6151 31.5947C18.3765 31.3462 18.1907 31.052 18.0686 30.7299C17.9465 30.4077 17.8908 30.0642 17.9047 29.72C17.9015 28.7486 17.888 27.7768 17.913 26.806C17.9215 26.478 17.8125 26.4205 17.5159 26.4257C16.5182 26.4431 15.5196 26.4496 14.5221 26.427C14.0251 26.4414 13.5353 26.3057 13.1165 26.0376C12.6978 25.7695 12.3697 25.3813 12.1749 24.9239C11.9637 24.4964 11.8832 24.0161 11.9435 23.5432C12.0038 23.0702 12.2022 22.6255 12.5139 22.2647C12.7319 21.977 13.0128 21.743 13.3352 21.5806C13.6575 21.4181 14.0127 21.3315 14.3736 21.3274C14.9055 21.314 15.438 21.3248 15.9702 21.3248L15.9702 21.3189Z" fill="#004387"/>
</g>
<defs>
<clipPath id="clip0_71_44">
<rect width="41" height="41" fill="white"/>
</clipPath>
</defs>
</svg>
