<svg width="41" height="41" viewBox="0 0 41 41" fill="none" xmlns="http://www.w3.org/2000/svg">
<g id="Sosmed logo-06 1">
<path id="Vector" d="M0.00842285 29.6476V4.24171C0.135963 4.20207 0.128933 4.07807 0.159503 3.98487C0.37019 3.21389 0.834522 2.5364 1.47756 2.06175C2.12059 1.58709 2.90481 1.34296 3.70363 1.36876C14.8735 1.36254 26.0433 1.36277 37.2132 1.36944C37.701 1.3537 38.1868 1.43793 38.6408 1.61693C39.0949 1.79594 39.5075 2.06593 39.8533 2.41032C40.1991 2.7547 40.4708 3.16619 40.6516 3.61948C40.8325 4.07276 40.9187 4.55826 40.905 5.0461C40.9167 12.9815 40.9174 20.917 40.9072 28.8525C40.922 29.6572 40.6641 30.4434 40.1754 31.0829C39.8214 31.5521 39.3587 31.9283 38.8272 32.1793C38.2957 32.4303 37.7113 32.5485 37.124 32.5239C33.8756 32.5235 30.6271 32.5234 27.3787 32.5237H26.915C27.4229 34.0466 27.9259 35.5276 28.4048 37.0164C28.4883 37.2761 28.6134 37.3253 28.8583 37.3226C30.0031 37.3104 31.1482 37.3147 32.2931 37.3181C32.461 37.2984 32.6311 37.3143 32.7924 37.3647C32.9538 37.4151 33.1027 37.4989 33.2295 37.6106C33.3563 37.7224 33.4582 37.8595 33.5285 38.0133C33.5988 38.167 33.636 38.3338 33.6376 38.5028C33.6392 38.6718 33.6053 38.8393 33.5379 38.9943C33.4705 39.1493 33.3713 39.2884 33.2466 39.4025C33.122 39.5167 32.9747 39.6033 32.8143 39.6568C32.654 39.7103 32.4842 39.7294 32.316 39.7129C24.4079 39.7148 16.4998 39.7147 8.59168 39.7128C8.42513 39.7279 8.25724 39.7082 8.09876 39.6548C7.94027 39.6014 7.79466 39.5155 7.67125 39.4026C7.54784 39.2898 7.44933 39.1524 7.38202 38.9993C7.31471 38.8462 7.28008 38.6807 7.28034 38.5135C7.28061 38.3463 7.31576 38.1809 7.38356 38.028C7.45135 37.8751 7.5503 37.7381 7.67407 37.6256C7.79784 37.5131 7.94372 37.4277 8.10238 37.3748C8.26103 37.3219 8.42898 37.3027 8.59548 37.3184C9.58064 37.3136 10.5658 37.3172 11.551 37.3172C12.4045 37.3172 12.406 37.3177 12.6742 36.5135C13.1144 35.194 13.5524 33.8737 14.0013 32.5237H13.529C10.2805 32.5237 7.03206 32.5234 3.78362 32.5226C2.97204 32.5625 2.17102 32.3251 1.51235 31.8493C0.853668 31.3734 0.376563 30.6876 0.159523 29.9046C0.128953 29.8113 0.136023 29.6872 0.00842285 29.6476ZM20.492 3.7624C14.9279 3.7624 9.36374 3.76257 3.79959 3.76292C3.61694 3.73629 3.43063 3.75138 3.25465 3.80708C3.07868 3.86277 2.9176 3.95762 2.78354 4.08449C2.64947 4.21136 2.54589 4.36695 2.48057 4.53959C2.41526 4.71223 2.38991 4.89743 2.40643 5.08127C2.40393 11.7242 2.40162 18.3671 2.3995 25.01C2.39923 25.2641 2.45486 25.3428 2.72186 25.3401C4.13272 25.3257 5.54368 25.3254 6.95474 25.3392C7.20939 25.3415 7.2888 25.2832 7.28474 25.0162C7.26843 23.9382 7.27053 22.8596 7.28108 21.7814C7.27467 21.6178 7.30199 21.4547 7.36134 21.3021C7.42069 21.1495 7.51081 21.0107 7.62609 20.8944C7.74137 20.7782 7.87934 20.6869 8.03142 20.6262C8.1835 20.5656 8.34643 20.5368 8.51008 20.5418C8.85602 20.5331 9.20226 20.5398 9.54835 20.5398C10.3394 20.5397 10.3301 20.5358 10.6398 19.8057C10.6918 19.7231 10.7106 19.6239 10.6924 19.528C10.6741 19.4322 10.6203 19.3468 10.5416 19.2891C10.1602 18.9376 9.79463 18.5676 9.44049 18.1885C9.33053 18.0849 9.2423 17.9604 9.18097 17.8223C9.11963 17.6842 9.08641 17.5353 9.08324 17.3843C9.08008 17.2332 9.10703 17.0831 9.16253 16.9426C9.21803 16.802 9.30097 16.674 9.40649 16.5659C10.5456 15.3901 11.7027 14.2319 12.8777 13.0913C12.985 12.9852 13.1122 12.9014 13.252 12.8447C13.3918 12.7879 13.5415 12.7593 13.6923 12.7606C13.8432 12.7618 13.9924 12.7929 14.1312 12.8519C14.27 12.911 14.3959 12.9969 14.5014 13.1047C14.7673 13.3459 15.0141 13.6082 15.2684 13.8622C15.8483 14.4414 15.8453 14.4352 16.5935 14.1233C16.682 14.1027 16.7595 14.0496 16.8109 13.9746C16.8622 13.8996 16.8837 13.8081 16.8709 13.7182C16.8497 13.1999 16.8546 12.6798 16.8678 12.1609C16.8642 12.0038 16.8922 11.8475 16.9501 11.7014C17.008 11.5552 17.0946 11.4222 17.2049 11.3101C17.3151 11.198 17.4467 11.1092 17.5918 11.0489C17.737 10.9886 17.8928 10.958 18.05 10.9589C19.6605 10.9447 21.2711 10.945 22.8818 10.96C23.1924 10.9611 23.4899 11.0855 23.7089 11.3057C23.9278 11.526 24.0504 11.8242 24.0498 12.1348C24.0638 12.4937 24.0538 12.8535 24.0538 13.213C24.0541 14.0188 24.0585 14.0079 24.8156 14.3255C24.894 14.3713 24.9867 14.3862 25.0756 14.3671C25.1644 14.348 25.2428 14.2963 25.2955 14.2223C25.6521 13.8454 26.0184 13.4766 26.3972 13.1221C26.5028 13.0094 26.63 12.9191 26.7713 12.8568C26.9126 12.7944 27.065 12.7612 27.2194 12.7591C27.3738 12.757 27.5271 12.7861 27.67 12.8447C27.8129 12.9033 27.9425 12.9901 28.051 13.1C29.2146 14.2326 30.3627 15.381 31.4952 16.5453C31.6045 16.6544 31.6907 16.7843 31.7487 16.9273C31.8067 17.0703 31.8354 17.2236 31.833 17.3779C31.8306 17.5323 31.7971 17.6845 31.7347 17.8257C31.6722 17.9669 31.582 18.094 31.4694 18.1996C31.2251 18.4629 30.9641 18.7107 30.7101 18.9649C30.1524 19.523 30.1625 19.5187 30.4629 20.2608C30.4875 20.3549 30.5465 20.4364 30.6283 20.4891C30.71 20.5418 30.8086 20.5618 30.9045 20.5452C31.3697 20.5269 31.8361 20.5371 32.302 20.5404C32.482 20.5213 32.6641 20.5426 32.8348 20.6029C33.0056 20.6632 33.1607 20.7609 33.2889 20.8888C33.417 21.0167 33.515 21.1717 33.5756 21.3423C33.6362 21.513 33.6579 21.695 33.6392 21.8751C33.6434 22.9134 33.6506 23.952 33.6332 24.9901C33.6285 25.2656 33.6917 25.3443 33.9772 25.3408C35.348 25.3241 36.7194 25.3206 38.0902 25.3423C38.4334 25.3477 38.5232 25.2731 38.5225 24.9164C38.5097 18.3666 38.5065 11.8168 38.513 5.26701C38.513 4.19015 38.0902 3.76255 37.0247 3.76251C31.5138 3.76226 26.0029 3.76223 20.492 3.7624ZM26.3318 25.3334C27.9264 25.3334 29.495 25.3307 31.0635 25.337C31.2468 25.3377 31.2457 25.2443 31.2451 25.1132C31.242 24.4608 31.2377 23.8082 31.2476 23.156C31.2503 22.9793 31.1966 22.9276 31.0225 22.9328C30.6235 22.9446 30.2237 22.9415 29.8244 22.9353C29.5352 22.9608 29.2465 22.8811 29.0112 22.7109C28.776 22.5406 28.6101 22.2913 28.5438 22.0086C28.3262 21.298 28.0414 20.6097 27.6931 19.9532C27.5271 19.706 27.4594 19.4056 27.5035 19.1111C27.5476 18.8166 27.7003 18.5492 27.9315 18.3615C28.1989 18.0832 28.4685 17.8059 28.753 17.5456C28.9075 17.4042 28.9013 17.3148 28.7538 17.1732C28.3313 16.7677 27.9039 16.3644 27.5152 15.9275C27.2811 15.6643 27.1428 15.7044 26.9398 15.9455C26.7186 16.1942 26.4845 16.4312 26.2387 16.6556C26.0521 16.8877 25.7858 17.0421 25.4917 17.0886C25.1976 17.1351 24.8966 17.0705 24.6475 16.9073C23.9925 16.5565 23.3048 16.2703 22.5942 16.0528C22.3045 15.9861 22.0492 15.8155 21.8767 15.5733C21.7042 15.3311 21.6264 15.034 21.6581 14.7384C21.6406 14.4059 21.6429 14.0728 21.6651 13.7406C21.7036 13.3875 21.5641 13.3253 21.2475 13.342C20.7289 13.3693 20.2092 13.3694 19.6906 13.3422C19.3615 13.325 19.2067 13.3845 19.2524 13.7608C19.2772 14.0928 19.2797 14.4261 19.2598 14.7584C19.287 15.0474 19.2093 15.3365 19.0409 15.5729C18.8725 15.8094 18.6246 15.9773 18.3426 16.046C17.62 16.2691 16.9199 16.5599 16.2518 16.9144C16.0074 17.0724 15.7133 17.1348 15.4258 17.0896C15.1383 17.0443 14.8776 16.8947 14.6934 16.6693C14.4051 16.3932 14.1212 16.1118 13.8474 15.8214C13.7347 15.7018 13.6637 15.6723 13.5348 15.8052C13.0714 16.2828 12.6007 16.7535 12.1229 17.2171C11.9787 17.3565 12.0456 17.4255 12.1536 17.5293C12.4413 17.8061 12.7255 18.087 13.001 18.3759C13.2244 18.5622 13.3717 18.824 13.4151 19.1116C13.4584 19.3993 13.3947 19.6928 13.2361 19.9367C12.8849 20.5916 12.5988 21.2794 12.382 21.9903C12.3169 22.2804 12.148 22.5366 11.907 22.7108C11.6661 22.8849 11.3697 22.9649 11.0739 22.9356C10.6879 22.9405 10.3014 22.9464 9.91578 22.9324C9.72471 22.9254 9.66638 22.9822 9.67004 23.1759C9.68187 23.8014 9.68442 24.4276 9.66915 25.053C9.66364 25.2788 9.72837 25.3404 9.95437 25.3388C11.3921 25.3285 12.8301 25.3242 14.2677 25.3414C14.561 25.3449 14.589 25.2399 14.5447 25.0031C14.4489 24.4248 14.4471 23.8348 14.5394 23.2559C14.7309 21.9478 15.3503 20.74 16.3007 19.821C17.2511 18.9021 18.479 18.3237 19.7928 18.1762C21.1066 18.0288 22.4322 18.3205 23.5627 19.0059C24.6932 19.6913 25.5649 20.7317 26.0417 21.9648C26.4535 23.0379 26.5541 24.2056 26.3318 25.3334ZM20.4856 27.7303H3.2789C2.40467 27.7303 2.40467 27.7303 2.40506 28.6142C2.40554 29.7092 2.82473 30.1268 3.92454 30.1268C14.9432 30.1269 25.9618 30.1269 36.9805 30.1268C37.1002 30.1268 37.2202 30.1303 37.3397 30.1239C37.649 30.1168 37.9435 29.9902 38.1615 29.7708C38.3796 29.5513 38.5042 29.256 38.5093 28.9466C38.521 28.6809 38.4858 28.4109 38.5195 28.149C38.5655 27.7919 38.4364 27.721 38.0914 27.7217C32.2228 27.7336 26.3542 27.7365 20.4856 27.7303ZM25.9817 37.3036C25.4634 35.7496 24.9574 34.2409 24.4602 32.7292C24.4498 32.6649 24.4148 32.6072 24.3625 32.5682C24.3103 32.5293 24.2449 32.5123 24.1803 32.5209C21.7039 32.5251 19.2276 32.5257 16.7512 32.5227C16.6253 32.5226 16.5228 32.526 16.4728 32.6781C15.9669 34.2137 15.4558 35.7476 14.9388 37.3036H25.9817ZM20.4159 25.3335C21.4526 25.3335 22.4894 25.3281 23.526 25.3377C23.7532 25.3398 23.8689 25.3036 23.9319 25.0432C24.0988 24.3696 24.0725 23.6625 23.8561 23.0031C23.56 22.1198 22.9315 21.3865 22.1038 20.9587C21.2761 20.5309 20.3144 20.4424 19.4225 20.7118C18.5307 20.9812 17.7788 21.5874 17.3264 22.4018C16.8739 23.2163 16.7565 24.1749 16.999 25.0745C17.0586 25.29 17.142 25.3394 17.3456 25.3376C18.3689 25.3286 19.3924 25.3335 20.4159 25.3335Z" fill="#004387"/>
<path id="Vector_2" d="M36.0346 9.77055C36.0313 10.482 35.8169 11.1764 35.4185 11.7658C35.0201 12.3552 34.4557 12.8131 33.7969 13.0814C33.138 13.3497 32.4143 13.4164 31.7175 13.273C31.0206 13.1295 30.3821 12.7825 29.8828 12.2757C29.3834 11.769 29.0457 11.1255 28.9125 10.4266C28.7793 9.72778 28.8566 9.00513 29.1346 8.35026C29.4125 7.69538 29.8786 7.13776 30.4738 6.74807C31.069 6.35838 31.7665 6.15417 32.4779 6.16131C33.4245 6.17972 34.3264 6.56753 34.991 7.24191C35.6555 7.91628 36.0301 8.82377 36.0346 9.77055ZM32.457 8.55794C32.2199 8.55486 31.9872 8.62229 31.7885 8.75168C31.5897 8.88106 31.4339 9.06658 31.3408 9.28467C31.2477 9.50276 31.2215 9.7436 31.2655 9.97662C31.3095 10.2096 31.4217 10.4243 31.5879 10.5935C31.7541 10.7626 31.9669 10.8785 32.1991 10.9265C32.4313 10.9746 32.6726 10.9525 32.8922 10.8632C33.1119 10.7738 33.3001 10.6213 33.4329 10.4248C33.5657 10.2283 33.6371 9.99684 33.6382 9.7597C33.6366 9.44501 33.5123 9.14334 33.2917 8.9189C33.0711 8.69446 32.7716 8.56496 32.457 8.55794Z" fill="#004387"/>
</g>
</svg>
