<svg width="41" height="41" viewBox="0 0 41 41" fill="none" xmlns="http://www.w3.org/2000/svg">
<g id="Sosmed logo-07 1" clip-path="url(#clip0_71_42)">
<path id="Vector" d="M18.8618 0.00732422H21.9777C22.0053 0.0917942 22.0774 0.0753242 22.1407 0.0791242C22.923 0.133027 23.7009 0.237755 24.4696 0.392644C28.6168 1.21214 32.4094 3.2936 35.3278 6.35199C38.2463 9.41038 40.148 13.2962 40.7726 17.4772C40.7877 17.9462 40.8615 18.4115 40.9923 18.8622V22.1378C40.853 22.1937 40.9142 22.3203 40.9042 22.4139C40.7588 23.8558 40.4653 25.2789 40.0283 26.6606C38.9217 30.139 36.9043 33.2578 34.1856 35.6934C31.4669 38.129 28.1459 39.7926 24.5673 40.5116C20.9887 41.2306 17.2829 40.9788 13.8344 39.7823C10.386 38.5858 7.32057 36.4882 4.95634 33.7072C2.59212 30.9262 1.01524 27.5631 0.389346 23.9671C-0.236546 20.371 0.11136 16.6729 1.39696 13.2567C2.68256 9.84046 4.859 6.83052 7.70041 4.53926C10.5418 2.24801 13.9447 0.758933 17.5558 0.226574C17.9992 0.214251 18.4387 0.140464 18.8618 0.00732422ZM20.5161 25.5731C22.6994 25.5731 24.8828 25.5692 27.0661 25.5784C27.3145 25.5794 27.4255 25.5242 27.5016 25.2628C28.435 22.1313 28.4353 18.7957 27.5026 15.664C27.4972 15.6139 27.4816 15.5654 27.4567 15.5216C27.4318 15.4777 27.3982 15.4395 27.3579 15.4092C27.3176 15.3789 27.2715 15.3573 27.2224 15.3456C27.1734 15.3339 27.1225 15.3325 27.0729 15.3413C22.7195 15.3492 18.3661 15.3494 14.0127 15.3419C13.7646 15.3415 13.6535 15.3959 13.5772 15.6575C12.6424 18.7886 12.6423 22.1245 13.5767 25.2556C13.5819 25.3058 13.5974 25.3543 13.6222 25.3983C13.6471 25.4422 13.6806 25.4805 13.7209 25.5108C13.7612 25.5412 13.8073 25.5629 13.8564 25.5746C13.9054 25.5863 13.9564 25.5878 14.006 25.5789C16.176 25.5687 18.346 25.5731 20.5161 25.5731ZM10.1253 15.3469C8.26367 15.3469 6.44094 15.3558 4.61848 15.3379C4.32733 15.3351 4.23774 15.4408 4.16869 15.6919C3.85937 16.7791 3.65476 17.8933 3.55764 19.0194C3.37641 21.159 3.60078 23.3136 4.21896 25.3699C4.26746 25.5291 4.33085 25.5764 4.48941 25.5761C6.35224 25.5715 8.21508 25.5731 10.1241 25.5731C9.24244 22.2213 9.24284 18.6985 10.1253 15.3469ZM30.9547 15.3469C31.8348 18.6936 31.8355 22.2109 30.9569 25.5579C31.0843 25.5641 31.1763 25.5724 31.2683 25.5725C32.9989 25.5732 34.7297 25.5639 36.4602 25.582C36.7506 25.585 36.841 25.4806 36.9099 25.2282C37.2174 24.1406 37.4215 23.0265 37.5196 21.9005C37.701 19.7611 37.4774 17.6066 36.8605 15.55C36.8121 15.3905 36.7483 15.3436 36.5899 15.344C34.727 15.3486 32.8643 15.3469 30.9547 15.3469ZM20.5189 11.9313C22.2364 11.9313 23.954 11.9277 25.6715 11.9352C25.935 11.9364 26.0356 11.9195 25.8802 11.6238C24.495 8.98252 22.7707 6.53351 20.751 4.33891C20.5802 4.15307 20.5027 4.15122 20.3302 4.33858C18.3095 6.53219 16.5847 8.98088 15.1996 11.6222C15.0471 11.9124 15.1362 11.9368 15.4061 11.9355C17.1104 11.9273 18.8146 11.9313 20.5189 11.9313ZM15.0865 29.0083C15.1007 29.0613 15.118 29.1134 15.1384 29.1643C16.5305 31.8621 18.2795 34.3602 20.3382 36.5913C20.5288 36.7985 20.6054 36.7369 20.7582 36.5705C22.3193 34.8775 23.7033 33.0293 24.8887 31.0548C25.2978 30.3937 25.67 29.7105 26.0039 29.0083L15.0865 29.0083ZM25.0703 4.08066C25.0935 4.13099 25.1205 4.17941 25.1513 4.22547C26.984 6.50448 28.5065 9.01647 29.6788 11.6957C29.7751 11.9161 29.9142 11.9351 30.1136 11.9344C31.7366 11.9292 33.3596 11.9324 34.9825 11.929C35.0643 11.9288 35.1674 11.9766 35.2299 11.8747C34.1336 9.97018 32.6716 8.30115 30.9281 6.96357C29.1846 5.62599 27.1938 4.64624 25.0703 4.08066ZM16.0526 4.06858C12.681 4.52266 6.5528 9.27797 5.8716 11.9315C7.56454 11.9315 9.25352 11.9241 10.9423 11.939C11.0511 11.9526 11.1612 11.9266 11.2524 11.8657C11.3436 11.8048 11.4098 11.7131 11.4389 11.6074C12.1204 10.0512 12.9252 8.55191 13.8456 7.12391C14.5262 6.0668 15.2629 5.0469 16.0526 4.06858ZM25.1031 36.8926C29.3947 35.6746 33.0479 32.8419 35.2961 28.9886C33.4738 28.9886 31.7326 28.9933 29.9916 28.9833C29.7459 28.9819 29.718 29.1525 29.6519 29.3016C28.4984 31.9003 27.02 34.3423 25.252 36.569C25.2035 36.6074 25.1647 36.6568 25.1388 36.713C25.1129 36.7692 25.1007 36.8308 25.1031 36.8926ZM5.77865 28.9885C8.04171 32.8555 11.7177 35.6929 16.0318 36.9027C16.0077 36.8378 15.9786 36.775 15.9447 36.7147C14.1018 34.4274 12.5719 31.9049 11.3952 29.2136C11.2954 28.985 11.1443 28.9868 10.9539 28.9871C9.58397 28.9897 8.21402 28.9902 6.84407 28.9885L5.77865 28.9885Z" fill="#004387"/>
</g>
<defs>
<clipPath id="clip0_71_42">
<rect width="41" height="41" fill="white"/>
</clipPath>
</defs>
</svg>
