<svg width="41" height="41" viewBox="0 0 41 41" fill="none" xmlns="http://www.w3.org/2000/svg">
<g id="Sosmed logo-10 1" clip-path="url(#clip0_122_955)">
<path id="Vector" d="M4.39972 0.00755018C3.81908 0.154993 3.2535 0.356465 2.71041 0.60933C2.06785 0.9558 1.50604 1.43455 1.06201 2.014C0.617983 2.59345 0.301836 3.26045 0.134412 3.97101C0.105782 4.08726 0.150032 4.24395 0.00528229 4.32179C0.00533229 2.9636 0.0101923 1.60538 -2.77143e-05 0.24727C-0.00149771 0.0473502 0.0451423 0.000770184 0.245072 0.00223018C1.62989 0.0123302 3.01482 0.00755018 4.39972 0.00755018Z" fill="#FCFCFC"/>
<path id="Vector_2" d="M20.5723 39.2727C17.8998 39.2707 15.2582 38.7009 12.8226 37.601C10.3869 36.5011 8.21274 34.8962 6.4441 32.8927C4.67547 30.8891 3.35273 28.5326 2.56351 25.9793C1.77428 23.426 1.53659 20.7342 1.86617 18.0821C2.19574 15.43 3.08507 12.8782 4.47524 10.5957C5.86541 8.31325 7.72469 6.35221 9.92991 4.8425C12.1351 3.33279 14.636 2.30888 17.2668 1.83858C19.8976 1.36828 22.5982 1.46234 25.1899 2.11451C25.5756 2.21177 25.9068 2.45824 26.1107 2.79971C26.3147 3.14118 26.3746 3.54967 26.2773 3.93532C26.1801 4.32097 25.9336 4.65219 25.5922 4.85612C25.2507 5.06005 24.8422 5.11998 24.4565 5.02272C21.0121 4.15557 17.3761 4.47061 14.1321 5.91732C10.8881 7.36403 8.22417 9.85852 6.56765 13.0006C4.91113 16.1426 4.35809 19.75 4.99729 23.244C5.63648 26.7379 7.43084 29.9159 10.0925 32.268C12.7541 34.6201 16.1287 36.0098 19.6747 36.2144C23.2208 36.4189 26.7328 35.4263 29.6472 33.3958C32.5616 31.3654 34.7094 28.4148 35.746 25.0174C36.7827 21.6201 36.6481 17.973 35.3638 14.6614C35.2923 14.4778 35.2578 14.282 35.262 14.085C35.2663 13.8881 35.3093 13.6939 35.3886 13.5136C35.4679 13.3333 35.5819 13.1703 35.7242 13.0341C35.8665 12.8978 36.0342 12.7909 36.2178 12.7195C36.4014 12.6481 36.5972 12.6135 36.7942 12.6178C36.9911 12.622 37.1853 12.665 37.3656 12.7443C37.5459 12.8236 37.7089 12.9377 37.8451 13.0799C37.9814 13.2222 38.0882 13.3899 38.1597 13.5735C39.2682 16.4328 39.6634 19.5191 39.311 22.5655C38.9587 25.6118 37.8694 28.5265 36.1375 31.0572C34.4055 33.588 32.0831 35.6587 29.371 37.0901C26.6589 38.5216 23.6389 39.2707 20.5723 39.2727Z" fill="#004387"/>
<path id="Vector_3" d="M20.5723 34.1233C18.7703 34.1248 16.9858 33.7712 15.3206 33.0828C13.6554 32.3943 12.1422 31.3843 10.8675 30.1107C9.59283 28.8371 8.58163 27.3248 7.89171 25.6602C7.20179 23.9956 6.84668 22.2113 6.84668 20.4094C6.84668 18.6075 7.20179 16.8233 7.89171 15.1587C8.58163 13.494 9.59283 11.9817 10.8675 10.7081C12.1422 9.43451 13.6554 8.4246 15.3206 7.7361C16.9858 7.04761 18.7703 6.69402 20.5723 6.69556C20.9701 6.69556 21.3516 6.8536 21.6329 7.1349C21.9142 7.41621 22.0723 7.79774 22.0723 8.19556C22.0723 8.59339 21.9142 8.97492 21.6329 9.25622C21.3516 9.53753 20.9701 9.69556 20.5723 9.69556C18.3539 9.69787 16.1911 10.3895 14.3829 11.6747C12.5748 12.9599 11.2107 14.7753 10.4794 16.8696C9.7481 18.964 9.68567 21.2339 10.3008 23.3653C10.9159 25.4966 12.1781 27.3842 13.9128 28.7669C15.6476 30.1496 17.7691 30.959 19.984 31.0833C22.1989 31.2075 24.3977 30.6404 26.2762 29.4604C28.1547 28.2804 29.6201 26.5458 30.4697 24.4966C31.3192 22.4473 31.5111 20.1847 31.0185 18.0217C30.93 17.6339 30.9991 17.2267 31.2107 16.8898C31.4223 16.5529 31.7591 16.3139 32.1469 16.2253C32.5348 16.1367 32.942 16.2059 33.2788 16.4175C33.6157 16.6291 33.8548 16.9659 33.9433 17.3537C34.4006 19.3625 34.3997 21.4485 33.9408 23.4569C33.4818 25.4653 32.5766 27.3446 31.2923 28.9554C30.0079 30.5662 28.3774 31.8671 26.5216 32.7618C24.6658 33.6564 22.6324 34.1218 20.5723 34.1233Z" fill="#004387"/>
<path id="Vector_4" d="M20.5723 27.9075C19.5941 27.9075 18.6256 27.7148 17.7219 27.3405C16.8183 26.9662 15.9972 26.4176 15.3056 25.7259C14.6139 25.0343 14.0653 24.2132 13.691 23.3095C13.3167 22.4059 13.124 21.4373 13.124 20.4592C13.124 19.4811 13.3167 18.5126 13.691 17.6089C14.0653 16.7052 14.6139 15.8842 15.3056 15.1925C15.9972 14.5009 16.8183 13.9523 17.7219 13.5779C18.6256 13.2036 19.5941 13.011 20.5723 13.011C20.9701 13.011 21.3516 13.169 21.6329 13.4503C21.9142 13.7316 22.0723 14.1132 22.0723 14.511C22.0723 14.9088 21.9142 15.2903 21.6329 15.5716C21.3516 15.853 20.9701 16.011 20.5723 16.011C19.6925 16.011 18.8325 16.2719 18.101 16.7606C17.3694 17.2494 16.7993 17.9441 16.4626 18.757C16.1259 19.5698 16.0379 20.4642 16.2095 21.327C16.3811 22.1899 16.8048 22.9825 17.4269 23.6046C18.049 24.2267 18.8416 24.6504 19.7045 24.822C20.5673 24.9936 21.4617 24.9055 22.2745 24.5689C23.0873 24.2322 23.7821 23.662 24.2708 22.9305C24.7596 22.199 25.0205 21.339 25.0205 20.4592C25.0205 20.0614 25.1785 19.6799 25.4598 19.3986C25.7411 19.1173 26.1227 18.9592 26.5205 18.9592C26.9183 18.9592 27.2999 19.1173 27.5812 19.3986C27.8625 19.6799 28.0205 20.0614 28.0205 20.4592C28.0183 22.434 27.2329 24.3272 25.8366 25.7235C24.4402 27.1199 22.547 27.9053 20.5723 27.9075Z" fill="#004387"/>
<path id="Vector_5" d="M20.1782 22.0336C19.8816 22.0336 19.5916 21.9456 19.345 21.7807C19.0984 21.6159 18.9061 21.3817 18.7926 21.1076C18.6791 20.8335 18.6494 20.532 18.7073 20.241C18.7651 19.9501 18.908 19.6828 19.1177 19.473L25.1607 13.4291L24.9283 10.8969C24.9085 10.6815 24.9356 10.4643 25.0077 10.2604C25.0797 10.0564 25.195 9.87044 25.3457 9.71524L31.1114 3.77969C31.3127 3.57225 31.5697 3.42741 31.8514 3.36262C32.1331 3.29783 32.4276 3.31583 32.6993 3.41447C32.971 3.51312 33.2084 3.68819 33.383 3.91861C33.5575 4.14904 33.6618 4.425 33.6831 4.71329L33.8399 6.8129L36.146 7.11075C36.4241 7.14656 36.6866 7.25962 36.9037 7.43709C37.1208 7.61457 37.2837 7.84936 37.3741 8.11479C37.4645 8.38023 37.4786 8.66568 37.4149 8.93874C37.3512 9.2118 37.2122 9.46153 37.0137 9.65958L31.2852 15.3764C31.1328 15.5304 30.9485 15.649 30.7453 15.7239C30.542 15.7989 30.3248 15.8282 30.1089 15.81L27.2466 15.5863L21.2388 21.5941C21.0997 21.7337 20.9344 21.8443 20.7524 21.9197C20.5704 21.9951 20.3753 22.0338 20.1782 22.0336ZM28.1011 12.6439L29.6548 12.766L32.732 9.69473L32.2427 9.63126C31.9013 9.58734 31.5854 9.42728 31.3481 9.17796C31.1108 8.92864 30.9665 8.60525 30.9395 8.26211L27.9785 11.31L28.1011 12.6439Z" fill="#004387"/>
</g>
<defs>
<clipPath id="clip0_122_955">
<rect width="41" height="41" fill="white"/>
</clipPath>
</defs>
</svg>
