<svg width="41" height="41" viewBox="0 0 41 41" fill="none" xmlns="http://www.w3.org/2000/svg">
<g id="Sosmed logo-11 1" clip-path="url(#clip0_122_929)">
<path id="Vector" d="M4.39978 0.00755018C3.81914 0.154993 3.25357 0.356465 2.71047 0.60933C2.06791 0.9558 1.5061 1.43455 1.06207 2.014C0.618044 2.59345 0.301897 3.26045 0.134473 3.97101C0.105843 4.08726 0.150093 4.24395 0.00534332 4.32179C0.00539332 2.9636 0.0102533 1.60538 3.33209e-05 0.24727C-0.00143668 0.0473502 0.0452033 0.000770184 0.245133 0.00223018C1.62995 0.0123302 3.01488 0.00755018 4.39978 0.00755018Z" fill="#FCFCFC"/>
<path id="Vector_2" d="M0.116607 2.489C2.57961 2.489 5.04271 2.4948 7.50567 2.48147C7.80225 2.47987 7.88902 2.54636 7.87457 2.84847C7.84725 3.41958 7.85257 3.99347 7.87301 4.56512C7.88236 4.82621 7.80788 4.89412 7.54677 4.89197C5.98917 4.87916 4.43132 4.89461 2.87377 4.87778C2.5754 4.87456 2.5023 4.94645 2.50556 5.24551C2.5225 6.80283 2.50704 8.36051 2.51975 9.9179C2.52187 10.1783 2.45495 10.2518 2.19334 10.2446C1.50156 10.2255 0.808887 10.2381 0.116577 10.2381L0.116607 2.489Z" fill="#004387"/>
<path id="Vector_3" d="M0.116577 30.8491C0.808887 30.8491 1.50158 30.8616 2.19334 30.8425C2.45493 30.8353 2.52187 30.9089 2.51975 31.1692C2.50704 32.7266 2.5225 34.2843 2.50556 35.8416C2.5023 36.1407 2.5754 36.2126 2.87377 36.2094C4.43129 36.1925 5.98914 36.208 7.54677 36.1952C7.80789 36.193 7.88207 36.2609 7.87302 36.522C7.85274 37.107 7.85234 37.6937 7.87316 38.2787C7.88254 38.5421 7.80432 38.6052 7.54563 38.6041C5.06932 38.594 2.59296 38.5981 0.116627 38.5981L0.116577 30.8491Z" fill="#004387"/>
<path id="Vector_4" d="M20.7533 30.908C17.259 30.8723 13.8409 29.8812 10.8694 28.0422C7.66631 26.0486 4.78571 23.5785 2.32684 20.717C2.22149 20.6 2.18724 20.5299 2.31068 20.3933C5.04752 17.1706 8.34108 14.4658 12.0344 12.4078C15.0382 10.7614 18.4512 10.0109 21.8686 10.2454C24.8177 10.5119 27.6654 11.4557 30.19 13.0032C33.1673 14.8278 35.8601 17.0803 38.182 19.6885C38.3809 19.9035 38.5684 20.1301 38.7793 20.3325C38.9326 20.4797 38.9527 20.574 38.7953 20.7477C36.6045 23.2575 34.1055 25.4806 31.3577 27.3641C28.8312 29.1015 25.9491 30.2533 22.9211 30.7359C22.2024 30.834 21.4786 30.8915 20.7533 30.908ZM11.4236 25.5529L11.5211 25.552L11.4808 25.4778C11.4739 25.4387 11.4632 25.4004 11.4487 25.3634C10.6602 23.8922 10.2447 22.2499 10.2387 20.5807C10.2328 18.9115 10.6365 17.2664 11.4144 15.7896C11.4433 15.731 11.4871 15.6775 11.4333 15.6067C11.2942 15.553 11.2145 15.6687 11.1227 15.7291C9.12357 17.0752 7.27487 18.6323 5.60845 20.3734C5.47674 20.5078 5.46745 20.5801 5.60511 20.7197C7.34958 22.552 9.30235 24.1741 11.4236 25.5529ZM29.7153 25.5556C31.8479 24.1717 33.81 22.5413 35.561 20.6981C35.696 20.561 35.651 20.4907 35.5421 20.3795C33.8673 18.6293 32.0093 17.0642 30.0001 15.711C29.8879 15.6372 29.7771 15.5226 29.6326 15.6151C30.7271 17.615 31.1253 19.9222 30.7644 22.1732C30.5687 23.3254 30.1964 24.4405 29.6608 25.4791L29.6205 25.5509L29.7153 25.5556ZM28.4912 20.5638C28.4947 18.9968 28.0333 17.464 27.1654 16.1594C26.2975 14.8547 25.0621 13.8368 23.6156 13.2344C22.169 12.6321 20.5763 12.4723 19.0389 12.7754C17.5015 13.0786 16.0886 13.8309 14.9789 14.9372C13.8692 16.0435 13.1126 17.4542 12.8049 18.9906C12.4972 20.5271 12.6521 22.1203 13.2501 23.5687C13.848 25.0171 14.8622 26.2555 16.1643 27.1273C17.4663 27.9992 18.9977 28.4652 20.5646 28.4664C21.6041 28.4684 22.6338 28.2655 23.5948 27.8694C24.5559 27.4732 25.4294 26.8916 26.1655 26.1577C26.9017 25.4238 27.4859 24.552 27.885 23.5922C28.284 22.6324 28.49 21.6033 28.4912 20.5638Z" fill="#004387"/>
<path id="Vector_5" d="M37.1492 2.48917C38.334 2.48917 39.519 2.49737 40.7038 2.48277C40.9646 2.47955 41.0312 2.54882 41.03 2.80922C41.0195 5.17866 41.0195 7.54813 41.03 9.91763C41.0311 10.177 40.9669 10.254 40.7042 10.2447C40.1191 10.2241 39.5324 10.2243 38.9473 10.2447C38.6856 10.2538 38.6186 10.1787 38.6207 9.91811C38.6335 8.36075 38.618 6.80311 38.6349 5.24583C38.6381 4.94721 38.5657 4.87463 38.2669 4.87783C36.7094 4.89474 35.1516 4.8793 33.594 4.89201C33.3336 4.89414 33.2586 4.82722 33.2674 4.56555C33.2877 3.96721 33.2843 3.36743 33.2685 2.76882C33.2625 2.54182 33.3297 2.48188 33.5545 2.48394C34.7527 2.495 35.9509 2.48917 37.1492 2.48917Z" fill="#004387"/>
<path id="Vector_6" d="M41.0238 34.7403C41.0238 35.9251 41.0168 37.1099 41.0297 38.2945C41.0323 38.535 40.9805 38.6057 40.7271 38.6045C38.344 38.5935 35.9609 38.5932 33.5778 38.6035C33.3385 38.6044 33.2575 38.557 33.267 38.3015C33.2886 37.7166 33.2896 37.1297 33.2669 36.5448C33.2562 36.2687 33.3252 36.191 33.6107 36.1939C35.1682 36.2096 36.7261 36.194 38.2836 36.2082C38.5586 36.2107 38.6373 36.1501 38.6344 35.8645C38.6188 34.3072 38.6343 32.7495 38.6201 31.1922C38.6176 30.9174 38.6772 30.8293 38.9639 30.8414C39.5487 30.8661 40.1356 30.8612 40.7208 30.8428C40.963 30.8352 41.0337 30.8934 41.0306 31.1462C41.0155 32.3441 41.0238 33.5423 41.0238 34.7403Z" fill="#004387"/>
<path id="Vector_7" d="M11.4808 25.4778L11.5211 25.552L11.4236 25.5529L11.4808 25.4778Z" fill="#FCFCFC"/>
<path id="Vector_8" d="M29.7154 25.5555L29.6205 25.5508L29.6607 25.479L29.7154 25.5555Z" fill="#020202"/>
<path id="Vector_9" d="M20.5623 16.6773C21.3284 16.6754 22.0779 16.9007 22.7161 17.3247C23.3542 17.7486 23.8523 18.3523 24.1475 19.0593C24.4426 19.7663 24.5216 20.5449 24.3743 21.2968C24.2271 22.0486 23.8603 22.7399 23.3202 23.2834C22.7802 23.8268 22.0912 24.198 21.3403 24.3499C20.5893 24.5019 19.8102 24.4278 19.1014 24.1371C18.3926 23.8464 17.7858 23.3521 17.3578 22.7166C16.9299 22.0812 16.6999 21.3331 16.6969 20.567C16.695 20.0577 16.7935 19.553 16.9868 19.0818C17.1801 18.6106 17.4644 18.1821 17.8233 17.8209C18.1823 17.4596 18.609 17.1727 19.079 16.9764C19.549 16.7802 20.053 16.6785 20.5623 16.6773ZM20.5889 19.0739C20.3941 19.0715 20.2006 19.1077 20.0198 19.1804C19.839 19.2531 19.6743 19.3609 19.5353 19.4975C19.3963 19.6341 19.2857 19.7969 19.2098 19.9764C19.134 20.156 19.0944 20.3487 19.0933 20.5436C19.0923 20.7385 19.1298 20.9317 19.2038 21.1121C19.2777 21.2924 19.3866 21.4563 19.5241 21.5944C19.6617 21.7325 19.8252 21.842 20.0052 21.9166C20.1853 21.9912 20.3783 22.0295 20.5732 22.0292C20.9637 22.0291 21.3382 21.8744 21.615 21.599C21.8918 21.3236 22.0483 20.9498 22.0503 20.5594C22.0524 20.1689 21.8999 19.7935 21.6261 19.5152C21.3522 19.2368 20.9794 19.0782 20.5889 19.0739Z" fill="#004387"/>
</g>
<defs>
<clipPath id="clip0_122_929">
<rect width="41" height="41" fill="white"/>
</clipPath>
</defs>
</svg>
